<?xml version="1.0" standalone="no"?>
<!DOCTYPE svg PUBLIC "-//W3C//DTD SVG 20010904//EN"
 "http://www.w3.org/TR/2001/REC-SVG-20010904/DTD/svg10.dtd">
<svg version="1.0" xmlns="http://www.w3.org/2000/svg"
 width="512.000000pt" height="512.000000pt" viewBox="0 0 512.000000 512.000000"
 preserveAspectRatio="xMidYMid meet">

<g transform="translate(0.000000,512.000000) scale(0.100000,-0.100000)"
fill="#C1E8FF" stroke="none">
<path d="M630 4419 c-290 -76 -514 -308 -575 -597 -22 -99 -22 -2425 0 -2524
61 -291 286 -523 579 -598 78 -20 105 -20 1926 -20 1821 0 1848 0 1926 20 293
75 518 307 579 598 22 99 22 2425 0 2524 -61 291 -286 523 -579 598 -78 20
-104 20 -1930 19 -1805 0 -1853 -1 -1926 -20z m3752 -350 c61 -13 155 -58 179
-85 16 -18 -24 -52 -882 -744 -494 -399 -921 -739 -949 -756 -97 -60 -221 -65
-323 -12 -25 13 -456 352 -960 753 l-916 730 22 23 c12 13 43 35 70 48 108 55
9 53 1929 53 1281 1 1792 -2 1830 -10z m328 -2679 c-30 -166 -164 -304 -328
-339 -75 -16 -3569 -16 -3644 0 -161 35 -294 169 -327 332 -8 36 -10 389 -9
1129 l3 1076 590 -470 c1329 -1059 1232 -988 1393 -1029 91 -23 228 -25 326
-4 155 33 163 39 1116 808 l885 714 3 -1081 c1 -692 -2 -1101 -8 -1136z"/>
</g>
</svg>
