<?xml version="1.0" standalone="no"?>
<!DOCTYPE svg PUBLIC "-//W3C//DTD SVG 20010904//EN"
 "http://www.w3.org/TR/2001/REC-SVG-20010904/DTD/svg10.dtd">
<svg version="1.0" xmlns="http://www.w3.org/2000/svg"
 width="512.000000pt" height="512.000000pt" viewBox="0 0 512.000000 512.000000"
 preserveAspectRatio="xMidYMid meet">

<g transform="translate(0.000000,512.000000) scale(0.100000,-0.100000)"
fill="#C1E8FF" stroke="none">
<path d="M3550 4965 c-8 -2 -49 -9 -90 -15 -164 -27 -331 -95 -492 -202 -76
-50 -164 -132 -483 -450 l-390 -389 55 8 c30 5 125 8 210 7 173 -1 314 -23
467 -73 l88 -29 195 192 c118 116 217 204 252 224 256 150 570 111 779 -97
208 -208 247 -522 97 -779 -23 -41 -177 -202 -553 -578 -475 -475 -526 -524
-592 -558 -147 -75 -314 -95 -467 -56 -105 27 -187 72 -270 150 -76 71 -120
134 -156 223 -14 33 -30 57 -38 57 -16 0 -472 -448 -472 -463 0 -5 27 -48 60
-96 67 -97 202 -234 301 -304 146 -103 336 -181 522 -213 138 -24 387 -15 523
20 183 46 354 132 508 257 39 31 299 286 577 566 425 427 516 523 567 601 147
221 210 416 219 677 13 371 -112 691 -372 950 -249 250 -562 377 -915 374 -63
-1 -122 -3 -130 -4z"/>
<path d="M2115 3595 c-230 -42 -416 -128 -599 -276 -39 -31 -299 -286 -577
-566 -424 -426 -516 -523 -567 -601 -147 -221 -210 -416 -219 -677 -13 -371
112 -691 372 -950 259 -260 579 -385 950 -372 261 9 456 72 677 219 76 50 163
131 483 450 l390 389 -55 -8 c-30 -4 -125 -8 -210 -7 -173 1 -314 23 -467 73
l-88 29 -195 -192 c-118 -116 -217 -204 -252 -224 -256 -150 -570 -111 -779
97 -208 209 -247 522 -97 779 23 41 177 202 553 578 470 470 527 524 590 557
151 77 313 97 469 57 105 -27 187 -72 270 -150 74 -70 119 -133 155 -220 13
-30 25 -56 26 -58 11 -12 75 45 268 236 119 119 217 220 217 225 0 22 -105
163 -182 243 -189 196 -426 322 -694 369 -105 18 -341 18 -439 0z"/>
</g>
</svg>
